<?xml version="1.0" encoding="UTF-8" standalone="no"?>
<!-- Created with Inkscape (http://www.inkscape.org/) -->

<svg
   xmlns:dc="http://purl.org/dc/elements/1.1/"
   xmlns:cc="http://creativecommons.org/ns#"
   xmlns:rdf="http://www.w3.org/1999/02/22-rdf-syntax-ns#"
   xmlns:svg="http://www.w3.org/2000/svg"
   xmlns="http://www.w3.org/2000/svg"
   xmlns:xlink="http://www.w3.org/1999/xlink"
   xmlns:sodipodi="http://sodipodi.sourceforge.net/DTD/sodipodi-0.dtd"
   xmlns:inkscape="http://www.inkscape.org/namespaces/inkscape"
   id="svg2"
   version="1.1"
   inkscape:version="0.91 r13725"
   width="20"
   height="20"
   viewBox="0 0 20 20"
   sodipodi:docname="favicon.ico.2018_02_03_20_45_53.0.svg"
   inkscape:export-filename="/home/wardaia/Desktop/wordpress/wardaiablog/fedoramagazinetheme-0.09/g4894.png"
   inkscape:export-xdpi="100"
   inkscape:export-ydpi="100">
  <metadata
     id="metadata8">
    <rdf:RDF>
      <cc:Work
         rdf:about="">
        <dc:format>image/svg+xml</dc:format>
        <dc:type
           rdf:resource="http://purl.org/dc/dcmitype/StillImage" />
      </cc:Work>
    </rdf:RDF>
  </metadata>
  <defs
     id="defs6">
    <linearGradient
       inkscape:collect="always"
       xlink:href="#linearGradient5042"
       id="linearGradient4884"
       gradientUnits="userSpaceOnUse"
       gradientTransform="matrix(0.92943469,0,0,0.92943469,-287.42527,153.8072)"
       x1="324.71774"
       y1="1395.8767"
       x2="323.77097"
       y2="1255.7588" />
    <linearGradient
       inkscape:collect="always"
       id="linearGradient5042">
      <stop
         style="stop-color:#00ffcc;stop-opacity:1"
         offset="0"
         id="stop5044" />
      <stop
         style="stop-color:#782121;stop-opacity:0;"
         offset="1"
         id="stop5046" />
    </linearGradient>
  </defs>
  <sodipodi:namedview
     pagecolor="#ffffff"
     bordercolor="#666666"
     borderopacity="1"
     objecttolerance="10"
     gridtolerance="10"
     guidetolerance="10"
     inkscape:pageopacity="0"
     inkscape:pageshadow="2"
     inkscape:window-width="1366"
     inkscape:window-height="669"
     id="namedview4"
     showgrid="false"
     inkscape:zoom="4.17193"
     inkscape:cx="-5.2966102"
     inkscape:cy="0.41211145"
     inkscape:window-x="0"
     inkscape:window-y="28"
     inkscape:window-maximized="1"
     inkscape:current-layer="svg2" />
  <g
     transform="matrix(0.25681357,0,0,0.25681357,39.408941,-344.85691)"
     id="g4894">
    <g
       id="text4947"
       style="font-style:normal;font-variant:normal;font-weight:normal;font-stretch:normal;font-size:136.21313477px;line-height:327.99999714%;font-family:'Reem Kufi';-inkscape-font-specification:'Reem Kufi';letter-spacing:-1.07518077px;word-spacing:-0.80103511px;fill:#d40055;fill-opacity:1;stroke:none;stroke-width:1.46109247px;stroke-linecap:butt;stroke-linejoin:miter;stroke-opacity:1">
      <path
         sodipodi:nodetypes="ccccscscscccccsscccscccscssssc"
         inkscape:connector-curvature="0"
         id="path4833"
         style="font-style:normal;font-variant:normal;font-weight:normal;font-stretch:normal;line-height:327.99999714%;font-family:'Baloo Bhaijaan';-inkscape-font-specification:'Baloo Bhaijaan';letter-spacing:-1.07518077px;word-spacing:-0.80103511px;fill:#d40055;stroke:none;stroke-width:1.46109247px"
         d="m -110.64676,1370.9485 c -1.90698,0 -3.76856,0.3632 -5.58474,1.0897 -1.81617,0.6357 -3.40532,1.5892 -4.76745,2.8605 -1.36213,1.1805 -2.49724,2.6334 -3.40533,4.3588 -0.81728,1.7253 -1.22592,3.6323 -1.22592,5.7209 0,3.2691 0.9989,5.7664 2.99669,7.4917 1.99779,1.7254 4.44963,2.5881 7.35551,2.5881 3.08749,0 5.58473,-0.8173 7.49172,-2.4518 1.90699,-1.7254 2.86048,-4.2681 2.86048,-7.628 0,-2.361 -0.59026,-4.9036 -1.77078,-7.6279 -1.0897,-2.7243 -2.40643,-4.8583 -3.95018,-6.402 z m 7.76415,-19.7509 c 2.72426,1.3621 5.357719,3.1329 7.900364,5.3123 2.633454,2.1794 4.949077,4.722 6.94687,7.6279 2.088601,2.8151 3.768563,5.9934 5.039886,9.5349 1.271323,3.5415 1.906984,7.4009 1.906984,11.5781 0,4.7221 -0.862683,8.9447 -2.58805,12.6679 -1.634557,3.6323 -3.995585,6.7198 -7.083083,9.2625 -2.996689,2.5426 -6.674442,4.495 -11.033261,5.8571 -4.26801,1.2713 -9.03547,1.907 -14.30238,1.907 -4.44963,0 -8.71765,-0.5903 -12.80404,-1.7708 -3.99558,-1.1805 -7.53712,-2.9966 -10.62462,-5.4485 -3.0875,-2.4518 -5.53934,-5.4939 -7.35551,-9.1263 -1.81617,-3.7231 -2.72426,-8.0819 -2.72426,-13.0764 0,-5.721 1.13511,-10.7155 3.40533,-14.9835 2.36103,-4.268 5.44852,-7.8549 9.26249,-10.7608 3.81397,-2.9059 8.17279,-5.0853 13.07646,-6.5382 4.90367,-1.4529 9.89815,-2.1794 14.98344,-2.1794 l 2.58805,0 c 1.27133,0 2.40644,0.045 3.40533,0.1362 z" />
    </g>
    <path
       sodipodi:nodetypes="ccccscscscccccsscccscccscssssc"
       d="m -110.64676,1370.9485 c -1.90698,0 -3.76856,0.3632 -5.58474,1.0897 -1.81617,0.6357 -3.40532,1.5892 -4.76745,2.8605 -1.36213,1.1805 -2.49724,2.6334 -3.40533,4.3588 -0.81728,1.7253 -1.22592,3.6323 -1.22592,5.7209 0,3.2691 0.9989,5.7664 2.99669,7.4917 1.99779,1.7254 4.44963,2.5881 7.35551,2.5881 3.08749,0 5.58473,-0.8173 7.49172,-2.4518 1.90699,-1.7254 2.86048,-4.2681 2.86048,-7.628 0,-2.361 -0.59026,-4.9036 -1.77078,-7.6279 -1.0897,-2.7243 -2.40643,-4.8583 -3.95018,-6.402 z m 7.76415,-19.7509 c 2.72426,1.3621 5.357719,3.1329 7.900364,5.3123 2.633454,2.1794 4.949077,4.722 6.94687,7.6279 2.088601,2.8151 3.768563,5.9934 5.039886,9.5349 1.271323,3.5415 1.906984,7.4009 1.906984,11.5781 0,4.7221 -0.862683,8.9447 -2.58805,12.6679 -1.634557,3.6323 -3.995585,6.7198 -7.083083,9.2625 -2.996689,2.5426 -6.674442,4.495 -11.033261,5.8571 -4.26801,1.2713 -9.03547,1.907 -14.30238,1.907 -4.44963,0 -8.71765,-0.5903 -12.80404,-1.7708 -3.99558,-1.1805 -7.53712,-2.9966 -10.62462,-5.4485 -3.0875,-2.4518 -5.53934,-5.4939 -7.35551,-9.1263 -1.81617,-3.7231 -2.72426,-8.0819 -2.72426,-13.0764 0,-5.721 1.13511,-10.7155 3.40533,-14.9835 2.36103,-4.268 5.44852,-7.8549 9.26249,-10.7608 3.81397,-2.9059 8.17279,-5.0853 13.07646,-6.5382 4.90367,-1.4529 9.89815,-2.1794 14.98344,-2.1794 l 2.58805,0 c 1.27133,0 2.40644,0.045 3.40533,0.1362 z"
       style="font-style:normal;font-variant:normal;font-weight:normal;font-stretch:normal;font-size:medium;line-height:327.99999714%;font-family:'Baloo Bhaijaan';-inkscape-font-specification:'Baloo Bhaijaan';letter-spacing:-1.07518077px;word-spacing:-0.80103511px;fill:url(#linearGradient4884);fill-opacity:1;stroke:none;stroke-width:1.46109247px;stroke-linecap:butt;stroke-linejoin:miter;stroke-opacity:1"
       id="path4860"
       inkscape:connector-curvature="0" />
    <path
       sodipodi:nodetypes="cccccccccccccccccccccccccccscccccccccccccccccccccccccccccccccccccccccccccccccscccccccccccccccccccccccccccccccccccccccccc"
       inkscape:connector-curvature="0"
       id="text17853"
       d="m -110.37041,1351.0878 c -1.24357,0.035 -2.48155,0.1152 -3.71418,0.2378 l -0.003,0.3709 c -0.82324,0.7531 -1.6547,1.5012 -2.49228,2.3389 -5.74166,5.7417 -10.30113,12.0263 -13.68018,18.7555 -1.89714,-4.1668 -4.08826,-8.5313 -6.57412,-13.0857 -0.0334,0.026 -0.0684,0.048 -0.10169,0.073 -1.29292,0.9852 -2.49592,2.0548 -3.62187,3.1964 3.00794,5.5682 5.55838,10.8181 7.66928,15.7517 -3.40399,8.808 -4.9245,18.2809 -4.55901,28.2254 -1.84031,-2.6576 -3.97966,-5.2155 -6.4161,-7.652 -0.6647,-0.6647 -1.32158,-1.2657 -1.9494,-1.8508 l -1.48473,-1.3847 -0.46623,0.4491 c 0.26869,0.7135 0.55607,1.4133 0.88396,2.0855 1.81617,3.6323 4.26888,6.6755 7.35638,9.1274 3.0875,2.4518 6.62908,4.2671 10.62467,5.4476 0.92571,0.2675 1.86239,0.5004 2.80675,0.7072 -0.39608,-0.8503 -0.82232,-1.6975 -1.28134,-2.5407 0.79606,-2.2737 1.69153,-4.4607 2.6722,-6.5679 0.44372,2.3421 0.7909,4.6053 1.04823,6.7947 -0.29516,0.8674 -0.56683,1.7486 -0.82451,2.6377 1.9235,0.3475 3.8866,0.5681 5.88574,0.6697 -0.10221,-1.2991 -0.22067,-2.6133 -0.38175,-3.9645 2.38777,-6.203 5.86322,-11.722 10.40094,-16.4963 0.32264,4.0803 0.42462,8.2602 0.16897,12.5333 -2.81253,2.3941 -5.56996,5.0323 -8.15741,7.9901 0.15577,0 0.31001,0.01 0.46622,0.01 1.9842,0 3.89624,-0.09 5.73866,-0.2706 0.42401,-0.4223 0.85177,-0.8373 1.28291,-1.2455 -0.0554,0.3721 -0.11816,0.7453 -0.17992,1.1187 2.63444,-0.3151 5.12585,-0.8142 7.46122,-1.5098 2.712894,-0.8478 5.160161,-1.9241 7.34542,-3.2292 1.684879,-3.5153 3.066149,-7.1085 4.130333,-10.7702 2.595382,-1.8369 5.085253,-3.6527 7.337608,-5.5383 -0.02389,1.0697 -0.08532,2.1234 -0.164268,3.1697 1.221389,-3.0487 1.892998,-6.4153 2.022924,-10.0959 l -2.011975,0 0.05158,1.2454 c -1.64166,1.5851 -3.566817,3.1313 -5.687034,4.7013 1.860589,-10.0276 1.433644,-20.4973 -1.397117,-31.1918 -1.466917,-1.7649 -3.070648,-3.3734 -4.817167,-4.8187 -0.09248,-0.079 -0.187281,-0.1487 -0.280048,-0.2269 l -0.683701,0.7384 0.0751,0.241 c -1.598339,2.6942 -3.623466,5.4316 -5.895115,8.27 -0.45743,-2.1507 -0.96328,-4.3402 -1.53322,-6.5834 l -1.03572,-4.0803 -2.9632,2.9929 c -0.67419,0.6813 -1.35081,1.3701 -2.02449,2.0667 -0.26376,-2.2262 -0.43278,-4.3592 -0.45685,-6.3879 l 0.53037,-0.4881 z m -3.5546,6.3817 c 0.16071,2.1767 0.42691,4.408 0.75567,6.6899 -2.94412,3.4652 -5.58402,7.0877 -7.93838,10.8437 0.0377,-0.034 0.0715,-0.072 0.10951,-0.1049 1.36213,-1.2713 2.95093,-2.2243 4.7671,-2.8599 1.18007,-0.472 2.38155,-0.7734 3.59997,-0.9387 0.162,-0.2129 0.3161,-0.4296 0.48029,-0.6415 0.0319,0.183 0.0664,0.375 0.0986,0.5586 0.46595,-0.044 0.93343,-0.069 1.40494,-0.069 1.54375,1.5438 2.86071,3.6778 3.95042,6.4021 0.16913,0.3902 0.32288,0.7764 0.46778,1.1593 -0.0328,-0.1928 -0.0639,-0.3916 -0.097,-0.5836 0.54704,-0.6506 1.07994,-1.2847 1.62085,-1.9259 0.43357,2.9259 0.75788,5.7539 0.98408,8.4875 -0.41263,0.3012 -0.81798,0.6076 -1.22033,0.9168 -0.0794,3.1457 -1.02032,5.5528 -2.84429,7.203 -1.78763,1.5324 -4.10115,2.3355 -6.92614,2.4313 -2.06374,2.6159 -3.88385,5.4027 -5.43827,8.3593 -0.32436,-1.6781 -0.70231,-3.3981 -1.12803,-5.1552 0.74191,-1.2742 1.5138,-2.5154 2.30297,-3.7344 -1.35151,-0.4282 -2.57374,-1.1007 -3.65784,-2.0371 -0.0456,-0.039 -0.0837,-0.084 -0.12829,-0.1251 -0.0235,0.037 -0.0485,0.072 -0.0719,0.1095 -0.0248,-0.085 -0.0531,-0.1706 -0.0783,-0.255 -1.80483,-1.7126 -2.71913,-4.1146 -2.71913,-7.2218 0,-0.7552 0.0559,-1.4859 0.1627,-2.1935 -0.11792,0.2376 -0.24251,0.4718 -0.35828,0.7103 -0.67319,-1.8106 -1.40106,-3.6588 -2.1872,-5.5477 3.23052,-7.3749 7.92829,-14.2302 14.08852,-20.4781 z m 19.686378,5.2709 c 1.584667,6.0856 2.362967,12.0646 2.349917,17.9106 l -2.841179,-5.2052 -1.16869,4.2117 c -0.740443,0.385 -1.481305,0.7614 -2.254483,1.2078 -0.365807,0.2111 -0.726707,0.4246 -1.085775,0.6415 -0.332738,-3.3202 -0.804328,-6.763 -1.429968,-10.3368 2.335535,-2.8407 4.525432,-5.6291 6.430178,-8.4296 z m -12.664798,1.6192 c 0.45883,2.0153 0.86388,3.9815 1.22815,5.9124 -0.55004,0.6528 -1.0954,1.3028 -1.65996,1.9697 -0.38863,-2.1493 -0.76638,-4.2466 -1.10299,-6.2722 0.48444,-0.5392 1.03092,-1.074 1.5348,-1.6099 z m 14.984992,18.0421 c -0.137696,4.6713 -0.782528,9.254 -1.933754,13.7334 -0.06376,0.045 -0.126905,0.088 -0.190878,0.133 0.425765,-5.1078 0.851483,-9.7809 1.832055,-13.7146 z m -38.579542,2.2373 c 0.679,1.7883 1.30529,3.5376 1.87585,5.2458 -2.04505,5.2133 -3.60542,10.625 -4.67322,16.2085 -0.22359,-7.4991 0.71287,-14.6699 2.79737,-21.4543 z m 33.319611,0.6695 c -0.752126,4.2938 -1.123185,8.9446 -1.547314,13.7944 0.186148,-4.0318 0.161183,-8.272 -0.117331,-12.743 0.546554,-0.3567 1.09993,-0.7081 1.664645,-1.0514 z m -6.226791,4.3542 c 0.18856,4.7852 0.0729,9.2777 -0.29257,13.5127 -0.084,0.064 -0.16783,0.1298 -0.25189,0.194 0.0852,-4.3829 -0.15184,-8.6513 -0.57417,-12.7806 0.36786,-0.3122 0.73991,-0.6218 1.11863,-0.9261 z m -22.92337,7.9164 c 0.0495,0.1893 0.10033,0.378 0.14862,0.5664 -0.24187,0.4471 -0.47947,0.8991 -0.71498,1.3533 0.18273,-0.6426 0.369,-1.2828 0.56636,-1.9197 z m 47.430032,0.1236 c -0.139416,0.8491 -0.238558,1.7098 -0.287865,2.5846 0.114348,-0.8543 0.209987,-1.7158 0.287865,-2.5846 z"
       style="font-style:normal;font-variant:normal;font-weight:normal;font-stretch:normal;font-size:146.55482483px;line-height:327.99999714%;font-family:'Reem Kufi';-inkscape-font-specification:'Reem Kufi';letter-spacing:-1.15681159px;word-spacing:-0.86185193px;fill:#550022;fill-opacity:1;stroke:none;stroke-width:1.46109247px;stroke-linecap:butt;stroke-linejoin:miter;stroke-opacity:1" />
    <path
       style="opacity:1;fill:#ffffff;fill-opacity:1;stroke:none;stroke-width:1;stroke-linecap:butt;stroke-linejoin:miter;stroke-miterlimit:4;stroke-dasharray:none;stroke-dashoffset:0;stroke-opacity:1"
       d="m -119.97815,1363.2112 c -1.64426,0.01 -3.18489,0.8453 -4.06473,2.4959 -0.26687,-4e-4 -0.52662,0.043 -0.7726,0.1236 -0.15736,-0.03 -0.3138,-0.054 -0.46899,-0.072 0.12458,-0.6528 0.31903,-1.2386 0.57069,-1.7568 -0.54239,0.4519 -1.01257,1.0303 -1.37484,1.7158 -0.79157,0.011 -1.53634,0.1777 -2.19567,0.4751 0.57365,0.062 1.1754,0.207 1.79883,0.4442 -0.046,0.1341 -0.0884,0.2713 -0.12682,0.4113 -0.26176,0.229 -0.47658,0.5143 -0.62605,0.8478 -0.20119,-0.016 -0.39838,-0.021 -0.59115,-0.015 -2.34291,-0.071 -4.09544,1.3969 -4.6789,3.4664 0.11384,-0.029 0.22937,-0.056 0.34649,-0.08 -0.0479,0.1603 -0.0887,0.3243 -0.12214,0.4916 1.49011,-0.3253 3.24658,-0.26 5.17856,0.3642 0.63612,1.0898 1.75235,2.2977 3.51122,3.5537 0.59336,0.1788 1.21365,0.4404 1.85425,0.7972 l 0.521,0.3086 c 0.35366,0.2221 0.71279,0.4733 1.07632,0.7554 -0.0159,-0.062 -0.0317,-0.1233 -0.0479,-0.1855 -0.0166,-0.064 -0.0328,-0.127 -0.0489,-0.1902 0.033,0.025 0.0661,0.05 0.0992,0.075 -0.0304,-0.1191 -0.0611,-0.2387 -0.0926,-0.3594 -0.0524,-0.2008 -0.10185,-0.3996 -0.14877,-0.5966 0.25129,0.2303 0.50359,0.4703 0.7568,0.7201 0.0996,0.098 0.19843,0.195 0.29695,0.291 -0.0762,-0.5139 -0.12147,-1.0037 -0.13876,-1.4695 l -0.007,-0.6056 c 0.009,-0.6087 0.0686,-1.1723 0.16959,-1.6914 -0.029,-0.081 -0.0589,-0.1588 -0.0896,-0.2348 0.0248,-0.1275 0.0521,-0.2524 0.0818,-0.3745 -0.0861,-0.2241 -0.17915,-0.4291 -0.27766,-0.6161 -0.19135,-1.1958 -0.47919,-2.1775 -0.83019,-2.9699 -0.0891,-0.2675 -0.18452,-0.5184 -0.28537,-0.753 0.44545,-2.1987 1.37263,-3.8786 2.52946,-5.0474 -0.12359,-0.045 -0.24775,-0.085 -0.37222,-0.1201 0.0199,-0.023 0.0399,-0.045 0.06,-0.068 -0.3859,-0.089 -0.77327,-0.1326 -1.15515,-0.1318 -0.0499,0 -0.0997,0 -0.14943,0 -0.0495,0 -0.0989,0 -0.14828,0 l -0.0376,0 z m 6.15506,0 c -0.0494,0 -0.0988,0 -0.14832,0 -0.0497,0 -0.0995,0 -0.14943,0 -0.38189,-9e-4 -0.76927,0.043 -1.15517,0.1318 0.0201,0.023 0.04,0.045 0.06,0.068 -0.12446,0.035 -0.2486,0.075 -0.37219,0.1201 1.15683,1.1688 2.08401,2.8487 2.52946,5.0473 -0.10087,0.2347 -0.19626,0.4856 -0.28538,0.7532 -0.35099,0.7923 -0.63884,1.774 -0.83018,2.9697 -0.0985,0.1871 -0.19153,0.3921 -0.27769,0.6162 0.0297,0.1221 0.057,0.247 0.0819,0.3745 -0.0307,0.076 -0.0606,0.1542 -0.0896,0.2348 0.10096,0.5191 0.16019,1.0827 0.16959,1.6914 l -0.007,0.6056 c -0.0173,0.4658 -0.0625,0.9556 -0.13876,1.4695 0.0985,-0.096 0.19736,-0.1927 0.29697,-0.291 0.25317,-0.2498 0.50549,-0.4898 0.75676,-0.7201 -0.0469,0.197 -0.0964,0.3958 -0.14878,0.5966 -0.0315,0.1207 -0.0622,0.2403 -0.0925,0.3594 0.0331,-0.025 0.0662,-0.05 0.0992,-0.075 -0.016,0.063 -0.0323,0.1266 -0.0489,0.1902 -0.0162,0.062 -0.032,0.1237 -0.0479,0.1855 0.36353,-0.2821 0.72266,-0.5333 1.07632,-0.7554 l 0.52101,-0.3086 c 0.6406,-0.3568 1.26088,-0.6184 1.85425,-0.7972 1.75886,-1.256 2.8751,-2.4639 3.51122,-3.5537 1.932,-0.6242 3.68844,-0.6895 5.17856,-0.3642 -0.0335,-0.1673 -0.0743,-0.3313 -0.12216,-0.4916 0.11713,0.024 0.23266,0.051 0.34651,0.08 -0.58346,-2.0695 -2.336,-3.5376 -4.6789,-3.4664 -0.19277,-0.01 -0.39,0 -0.59119,0.015 -0.14947,-0.3335 -0.36425,-0.6188 -0.62603,-0.8478 -0.0385,-0.14 -0.0808,-0.2772 -0.12683,-0.4113 0.62345,-0.2372 1.22519,-0.3817 1.79884,-0.4442 -0.65931,-0.2974 -1.40407,-0.4637 -2.19565,-0.4751 -0.36227,-0.6855 -0.83245,-1.2639 -1.37484,-1.7158 0.25166,0.5182 0.44609,1.104 0.57066,1.7568 -0.15519,0.018 -0.3116,0.042 -0.46897,0.072 -0.24595,-0.081 -0.50573,-0.124 -0.77259,-0.1236 -0.87984,-1.6506 -2.42049,-2.4881 -4.06476,-2.4959 l -0.0376,0 z m -20.09024,10.7584 c -1.76911,1.6028 -2.24423,4.121 -0.73724,6.2785 -0.11438,0.3425 -0.15124,0.7045 -0.11314,1.0643 -0.0146,0.023 -0.0291,0.045 -0.0434,0.067 -0.004,0 -0.008,-0.01 -0.0119,-0.01 -0.23398,-0.1855 -0.44983,-0.3766 -0.6484,-0.5722 0.1396,0.2897 0.3062,0.5742 0.49959,0.8504 -0.0142,0.025 -0.0281,0.05 -0.0418,0.076 -0.19375,-0.1609 -0.37451,-0.3256 -0.54243,-0.4937 0.0753,0.3193 0.18142,0.6376 0.31835,0.9507 -0.13693,0.3132 -0.24308,0.6314 -0.31836,0.9507 0.16791,-0.1681 0.34869,-0.3328 0.54244,-0.4937 0.0137,0.025 0.0277,0.05 0.0418,0.075 -0.19339,0.2762 -0.35999,0.5607 -0.49959,0.8504 0.19855,-0.1956 0.41442,-0.3866 0.6484,-0.5721 0.004,0 0.008,-0.01 0.0119,-0.01 0.0143,0.023 0.0288,0.045 0.0434,0.068 -0.0381,0.3598 -0.001,0.7219 0.11314,1.0643 -1.50699,2.1575 -1.03187,4.6757 0.73724,6.2786 0.0208,-0.082 0.0432,-0.1649 0.0671,-0.2475 0.0269,0.028 0.0542,0.055 0.0818,0.083 0.4863,-1.4084 1.41775,-2.8437 2.8853,-4.1583 1.18997,-0.051 2.66365,-0.4074 4.43666,-1.1999 0.12048,-0.01 0.24502,-0.02 0.37353,-0.037 0.46676,-0.4502 1.02799,-0.881 1.6924,-1.2784 l 0.52784,-0.2969 c 0.31141,-0.1647 0.64275,-0.3224 0.99452,-0.4721 -0.0195,-0.01 -0.0387,-0.011 -0.0583,-0.016 -0.0705,-0.019 -0.14051,-0.039 -0.21028,-0.059 0.20991,-0.097 0.4276,-0.1899 0.65332,-0.2801 -0.16009,-0.045 -0.32146,-0.091 -0.48531,-0.1357 -0.1354,-0.037 -0.26924,-0.075 -0.40186,-0.1138 0.13262,-0.038 0.26646,-0.076 0.40186,-0.1137 0.16385,-0.045 0.32522,-0.09 0.48531,-0.1358 -0.22574,-0.09 -0.44342,-0.1836 -0.65332,-0.28 0.0698,-0.02 0.13977,-0.039 0.21028,-0.059 0.0196,-0.01 0.0388,-0.011 0.0583,-0.016 -0.35177,-0.1496 -0.68311,-0.3073 -0.99452,-0.472 l -0.52786,-0.2969 c -0.66441,-0.3974 -1.22562,-0.8283 -1.69238,-1.2785 -0.12851,-0.017 -0.25307,-0.029 -0.37355,-0.037 -1.77299,-0.7925 -3.24667,-1.1486 -4.43664,-1.2 -1.46755,-1.3146 -2.399,-2.7499 -2.8853,-4.1583 -0.0276,0.027 -0.0549,0.055 -0.0818,0.083 -0.0238,-0.083 -0.0462,-0.1651 -0.0671,-0.2474 z m 34.063034,0 c -0.02082,0.082 -0.04323,0.1648 -0.06706,0.2474 -0.02692,-0.028 -0.05417,-0.055 -0.08181,-0.083 -0.486314,1.4084 -1.417754,2.8437 -2.885294,4.1583 -1.18997,0.051 -2.66365,0.4075 -4.43666,1.2 -0.12048,0.01 -0.24502,0.02 -0.37353,0.037 -0.46676,0.4502 -1.02799,0.8811 -1.6924,1.2785 l -0.52785,0.2969 c -0.3114,0.1647 -0.64275,0.3224 -0.99451,0.472 0.0195,0.01 0.0387,0.011 0.0583,0.016 0.0705,0.019 0.14053,0.039 0.21029,0.059 -0.20989,0.096 -0.42757,0.1898 -0.65331,0.28 0.16009,0.045 0.32148,0.091 0.48531,0.1358 0.1354,0.037 0.26924,0.075 0.40186,0.1137 -0.13262,0.039 -0.26646,0.077 -0.40188,0.1138 -0.16383,0.045 -0.32522,0.09 -0.48531,0.1357 0.22574,0.09 0.44342,0.1836 0.65332,0.2801 -0.0697,0.02 -0.13977,0.039 -0.21028,0.059 -0.0196,0.01 -0.0387,0.011 -0.0583,0.016 0.35176,0.1497 0.68311,0.3074 0.99451,0.4721 l 0.52785,0.2969 c 0.66441,0.3974 1.22564,0.8282 1.6924,1.2784 0.12851,0.017 0.25305,0.029 0.37353,0.037 1.77301,0.7925 3.24669,1.1485 4.43666,1.1999 1.46754,1.3146 2.39898,2.7499 2.885294,4.1583 0.02762,-0.027 0.05489,-0.055 0.08181,-0.083 0.02383,0.083 0.04624,0.1651 0.06706,0.2475 1.769115,-1.6029 2.244228,-4.1211 0.737244,-6.2786 0.114378,-0.3424 0.151243,-0.7045 0.113135,-1.0643 0.01462,-0.022 0.02912,-0.045 0.04337,-0.068 0.0039,0 0.008,0.01 0.01188,0.01 0.234002,0.1855 0.449854,0.3765 0.648399,0.5721 -0.139601,-0.2897 -0.306197,-0.5742 -0.499569,-0.8504 0.01413,-0.025 0.02806,-0.05 0.04178,-0.075 0.193756,0.1609 0.374553,0.3256 0.542465,0.4937 -0.07528,-0.3193 -0.181419,-0.6375 -0.318369,-0.9507 0.13695,-0.3131 0.243085,-0.6314 0.318369,-0.9507 -0.167912,0.1681 -0.348691,0.3328 -0.542465,0.4937 -0.01373,-0.025 -0.02765,-0.05 -0.0418,-0.075 0.19339,-0.2763 0.359986,-0.5608 0.499587,-0.8505 -0.198545,0.1956 -0.414397,0.3867 -0.648399,0.5722 -0.0039,0 -0.0079,0.01 -0.01188,0.01 -0.01426,-0.022 -0.02877,-0.045 -0.04339,-0.067 0.03813,-0.3598 0.0013,-0.7218 -0.113117,-1.0643 1.506984,-2.1575 1.031871,-4.6757 -0.737244,-6.2785 z m -20.292394,12.8545 c -0.36354,0.2821 -0.72265,0.5333 -1.07631,0.7554 l -0.521,0.3086 c -0.64062,0.3568 -1.26089,0.6184 -1.85425,0.7973 -1.75887,1.2559 -2.87512,2.4638 -3.51124,3.5536 -1.93198,0.6243 -3.68843,0.6895 -5.17856,0.3642 0.0335,0.1673 0.0743,0.3313 0.12216,0.4916 -0.11712,-0.024 -0.23265,-0.051 -0.34649,-0.08 0.58346,2.0694 2.33599,3.5375 4.6789,3.4663 0.19277,0.01 0.38996,0 0.59117,-0.015 0.14947,0.3335 0.36427,0.6188 0.62605,0.8478 0.0385,0.14 0.0808,0.2772 0.1268,0.4114 -0.62343,0.2371 -1.22516,0.3817 -1.79881,0.4441 0.65931,0.2974 1.40408,0.4638 2.19565,0.4751 0.36227,0.6855 0.83245,1.2639 1.37484,1.7158 -0.25166,-0.5182 -0.44611,-1.104 -0.57069,-1.7568 0.15521,-0.018 0.31165,-0.042 0.46903,-0.072 0.24596,0.081 0.50569,0.124 0.77254,0.1237 0.87984,1.6505 2.42049,2.488 4.06475,2.4958 l 0.0376,0 c 0.0493,0 0.0988,0 0.14832,0 0.0497,0 0.0995,0 0.14941,0 0.38188,9e-4 0.76925,-0.043 1.15515,-0.1318 -0.02,-0.022 -0.04,-0.045 -0.06,-0.068 0.12447,-0.035 0.24861,-0.075 0.37218,-0.12 -1.15679,-1.1689 -2.08397,-2.8488 -2.52942,-5.0474 0.10089,-0.2348 0.19629,-0.4856 0.28543,-0.7533 0.35096,-0.7923 0.63878,-1.7739 0.83013,-2.9696 0.0985,-0.1871 0.19152,-0.3921 0.27768,-0.6162 -0.0297,-0.1221 -0.057,-0.247 -0.0819,-0.3745 0.0307,-0.076 0.0606,-0.1542 0.0896,-0.2348 -0.10096,-0.5191 -0.1602,-1.0827 -0.16959,-1.6914 l 0.007,-0.6056 c 0.0173,-0.4658 0.0625,-0.9556 0.13876,-1.4695 -0.0985,0.096 -0.19734,0.1927 -0.29695,0.291 -0.25321,0.2499 -0.50551,0.4898 -0.7568,0.7201 0.0469,-0.197 0.0964,-0.3958 0.14877,-0.5966 0.0315,-0.1207 0.0622,-0.2403 0.0926,-0.3594 -0.0331,0.025 -0.0662,0.05 -0.0992,0.075 0.016,-0.063 0.0323,-0.1266 0.0489,-0.1902 0.0162,-0.062 0.032,-0.1237 0.0479,-0.1855 z m 6.52174,0 c 0.0159,0.062 0.0317,0.1233 0.0479,0.1855 0.0166,0.064 0.0329,0.127 0.0489,0.1903 -0.033,-0.025 -0.0661,-0.05 -0.0992,-0.075 0.0304,0.1191 0.0611,0.2387 0.0926,0.3594 0.0524,0.2008 0.10188,0.3996 0.1488,0.5966 -0.25131,-0.2303 -0.50363,-0.4702 -0.75682,-0.7201 -0.0996,-0.098 -0.19846,-0.195 -0.29697,-0.291 0.0762,0.5139 0.12149,1.0037 0.13876,1.4695 l 0.007,0.6056 c -0.009,0.6087 -0.0686,1.1723 -0.16959,1.6914 0.029,0.081 0.0589,0.1589 0.0896,0.2349 -0.0248,0.1275 -0.0521,0.2523 -0.0818,0.3744 0.0861,0.2241 0.17914,0.4291 0.27767,0.6162 0.19136,1.1958 0.47923,2.1776 0.83024,2.9699 0.0891,0.2675 0.18449,0.5183 0.28534,0.753 -0.44545,2.1986 -1.37263,3.8785 -2.52946,5.0474 0.12359,0.045 0.24775,0.085 0.37221,0.12 -0.0199,0.023 -0.0399,0.045 -0.06,0.068 0.38591,0.089 0.77327,0.1326 1.15515,0.1318 0.0498,0 0.0996,0 0.1492,0 0.0496,0 0.0991,0 0.14854,0 l 0.0376,0 c 1.64427,-0.01 3.18492,-0.8453 4.06476,-2.4958 0.26685,3e-4 0.5266,-0.043 0.77257,-0.1237 0.15737,0.03 0.3138,0.054 0.46901,0.072 -0.12457,0.6528 -0.31902,1.2386 -0.57068,1.7568 0.54239,-0.4519 1.01257,-1.0303 1.37484,-1.7158 0.79158,-0.011 1.53634,-0.1777 2.19565,-0.4751 -0.57365,-0.062 -1.17539,-0.207 -1.79882,-0.4442 0.0461,-0.1341 0.0884,-0.2713 0.12681,-0.4113 0.26178,-0.229 0.47657,-0.5143 0.62604,-0.8478 0.2012,0.016 0.39839,0.021 0.59116,0.015 2.34292,0.071 4.09546,-1.3969 4.67892,-3.4663 -0.11385,0.029 -0.22938,0.056 -0.34651,0.08 0.0479,-0.1603 0.0887,-0.3243 0.12216,-0.4916 -1.49012,0.3253 -3.24656,0.2601 -5.17856,-0.3642 -0.63612,-1.0898 -1.75236,-2.2977 -3.51122,-3.5536 -0.59337,-0.1789 -1.21365,-0.4405 -1.85425,-0.7973 l -0.52101,-0.3086 c -0.35366,-0.2221 -0.71279,-0.4733 -1.07632,-0.7554 z"
       id="path4503-2"
       inkscape:connector-curvature="0" />
  </g>
</svg>
